<?xml version="1.0" standalone="no"?><!DOCTYPE svg PUBLIC "-//W3C//DTD SVG 1.1//EN" "http://www.w3.org/Graphics/SVG/1.1/DTD/svg11.dtd"><svg t="1770534590839" class="icon" viewBox="0 0 1049 1024" version="1.1" xmlns="http://www.w3.org/2000/svg" p-id="13752" xmlns:xlink="http://www.w3.org/1999/xlink" width="32.78125" height="32"><path d="M675.493 927.706c0 0 0 0 0 0-93.026 0-203.492-69.77-351.75-220.934-145.351-148.258-215.12-264.54-212.213-354.658 2.908-75.583 49.42-122.096 93.026-162.795 5.813-5.813 11.628-11.628 17.442-17.442 5.813-5.813 14.535-8.721 23.258-8.721 8.721 0 17.442 2.908 23.258 8.721l177.328 180.237c5.813 5.813 8.721 14.535 8.721 23.258s-2.908 17.442-8.721 23.258l-55.233 52.326c0 0-2.908 5.813 5.813 20.349 29.070 66.862 139.537 171.516 180.237 171.516 0 0 0 0 0 0 2.908 0 2.908 0 5.813 0 2.908-2.908 52.326-52.326 52.326-52.326 11.628-11.628 34.883-11.628 46.512 0l177.328 180.237c11.628 11.628 11.628 31.979 0 43.605l-8.721 8.721c-46.512 52.326-95.932 104.653-174.421 104.653zM230.716 183.505l11.628 11.628c-5.813 5.813-11.628 11.628-17.442 17.442-40.7 37.791-84.305 78.491-84.305 142.445-2.908 81.396 66.862 191.865 206.4 334.308 139.537 142.445 250.005 212.213 331.402 212.213v0c66.862 0 110.467-46.512 151.166-93.026l8.721-11.628c0 0 0-2.908 0-5.813l-177.328-180.237-14.535-11.628 8.721 11.628c0 0-52.326 49.42-55.233 52.326 0 0-2.908 2.908-5.813 2.908-5.813 2.908-11.628 2.908-17.442 2.908 0 0 0 0 0 0-61.047 0-177.328-122.096-206.4-188.958-11.628-23.258-8.721-40.7 0-52.326l55.233-52.326c0 0 0-5.813 0-5.813l-180.237-177.328-14.535-8.721z" fill="#1677ff" p-id="13753"></path><path d="M815.029 485.837c0 0 0 0 0 0-8.721 0-14.535-5.813-14.535-14.535 2.908-63.955-23.258-125.002-66.862-171.516-46.512-46.512-107.559-69.77-171.516-66.862-8.721 0-14.535-5.813-14.535-14.535 0-8.721 5.813-14.535 14.535-14.535 72.675-2.908 142.445 23.258 191.865 75.583 52.326 52.326 78.491 119.188 75.583 191.865 0 8.721-5.813 14.535-14.535 14.535z" fill="#1677ff" p-id="13754"></path><path d="M937.124 485.837c0 0 0 0 0 0-8.721 0-14.535-5.813-14.535-14.535 2.908-98.838-34.883-188.958-104.653-258.726-69.77-69.77-159.887-104.653-258.726-104.653-8.721 0-14.535-5.813-14.535-14.535 0-8.721 5.813-14.535 14.535-14.535 104.653-2.908 206.4 37.791 279.075 113.375 75.583 75.583 113.375 174.421 113.375 279.075 0 8.721-5.813 14.535-14.535 14.535z" fill="#1677ff" p-id="13755"></path><path d="M692.935 485.837c0 0-2.908 0 0 0-8.721 0-14.535-8.721-14.535-14.535 2.908-31.979-8.721-61.047-31.979-84.305-23.258-23.258-52.326-34.883-84.305-31.979-8.721 0-14.535-5.813-14.535-14.535 0-8.721 5.813-14.535 14.535-14.535 40.7-2.908 78.491 11.628 107.559 40.7 29.070 29.070 43.605 66.862 40.7 107.559-5.813 5.813-11.628 11.628-17.442 11.628z" fill="#1677ff" p-id="13756"></path></svg>