<?xml version="1.0" standalone="no"?><!DOCTYPE svg PUBLIC "-//W3C//DTD SVG 1.1//EN" "http://www.w3.org/Graphics/SVG/1.1/DTD/svg11.dtd"><svg t="1770534441382" class="icon" viewBox="0 0 1024 1024" version="1.1" xmlns="http://www.w3.org/2000/svg" p-id="8879" xmlns:xlink="http://www.w3.org/1999/xlink" width="32" height="32"><path d="M813.9264 986.7776h-624.64c-81.92 0-153.6-66.56-153.6-153.6v-645.12c0-81.92 66.56-153.6 153.6-153.6h414.72c20.48 0 40.96 15.36 40.96 40.96s-15.36 40.96-40.96 40.96h-414.72c-40.96 0-76.8 35.84-76.8 76.8v645.12c0 40.96 35.84 76.8 76.8 76.8h619.52c40.96 0 76.8-35.84 76.8-76.8v-409.6c0-20.48 15.36-40.96 35.84-40.96s40.96 15.36 40.96 40.96v409.6c0 81.92-66.56 148.48-148.48 148.48z" p-id="8880" fill="#1677ff"></path><path d="M511.8464 551.5776c-10.24 0-20.48-5.12-25.6-10.24-20.48-15.36-20.48-40.96-5.12-56.32l435.2-435.2c15.36-15.36 40.96-15.36 56.32 0 15.36 15.36 15.36 40.96 0 56.32l-435.2 435.2c-10.24 5.12-15.36 10.24-25.6 10.24z" p-id="8881" fill="#1677ff"></path></svg>