<?xml version="1.0" standalone="no"?><!DOCTYPE svg PUBLIC "-//W3C//DTD SVG 1.1//EN" "http://www.w3.org/Graphics/SVG/1.1/DTD/svg11.dtd"><svg t="1770534341502" class="icon" viewBox="0 0 1024 1024" version="1.1" xmlns="http://www.w3.org/2000/svg" p-id="6361" xmlns:xlink="http://www.w3.org/1999/xlink" width="32" height="32"><path d="M786.774467 412.750447a47.099709 47.099709 0 0 0-33.493126-13.711248H515.480145L457.390504 293.064854H303.531456a47.099709 47.099709 0 0 0-47.413707 47.099709v376.274339a47.099709 47.099709 0 0 0 47.413707 47.099709h449.749885a47.099709 47.099709 0 0 0 47.413707-47.099709V446.086574a47.46604 47.46604 0 0 0-13.920581-33.336127zM280.871263 340.164563A22.555527 22.555527 0 0 1 303.531456 317.975367h139.205806L486.69699 397.730873H280.871263z m93.676087 320.068687a17.322226 17.322226 0 1 1 17.322226-17.322226 17.426892 17.426892 0 0 1-17.322226 17.426892zM387.264271 564.306843a17.322226 17.322226 0 1 1 5.233301-12.402923 17.426892 17.426892 0 0 1-5.233301 12.402923z m330.692289 90.483774H433.107988v-23.549854h284.639239z m0-91.11177H433.107988v-22.921858h284.639239z" fill="#1677ff" p-id="6362"></path></svg>